<?xml version="1.0" encoding="iso-8859-1"?>
<!-- Generator: Adobe Illustrator 19.0.0, SVG Export Plug-In . SVG Version: 6.00 Build 0)  -->
<svg version="1.1" id="Layer_1" xmlns="http://www.w3.org/2000/svg" xmlns:xlink="http://www.w3.org/1999/xlink" x="0px" y="0px"
	 viewBox="0 0 512 512" style="enable-background:new 0 0 512 512;" xml:space="preserve">
<path style="fill:#666666;" d="M199.963,157.981v-51.869h53.152h53.141v50.979c-15.926-4.762-32.788-7.316-50.251-7.316
	c-19.497,0-38.243,3.178-55.764,9.049L199.963,157.981z"/>
<path style="fill:#F95428;" d="M256.005,149.775c17.463,0,34.325,2.554,50.251,7.316c72.337,21.589,125.073,88.645,125.073,168.02
	c0,96.827-78.497,175.336-175.325,175.336c-96.839,0-175.336-78.509-175.336-175.336c0-77.342,50.078-142.987,119.572-166.287
	C217.761,152.953,236.507,149.775,256.005,149.775z"/>
<path style="fill:#E54728;" d="M295.009,461.444c-96.839,0-175.336-78.509-175.336-175.336c0-38.464,12.389-74.032,33.389-102.94
	c-43.866,31.872-72.393,83.575-72.393,141.944c0,96.827,78.497,175.336,175.336,175.336c58.363,0,110.058-28.532,141.926-72.397
	C369.026,449.05,333.466,461.444,295.009,461.444z"/>
<g>
	<path style="fill:#F9A493;" d="M359.563,239.794c-3.081,0-6.154-1.224-8.43-3.649c-15.883-16.923-35.864-29.327-57.782-35.868
		c-12.05-3.602-24.612-5.428-37.345-5.428c-6.382,0-11.557-5.174-11.557-11.557s5.175-11.557,11.557-11.557
		c14.977,0,29.767,2.152,43.961,6.396c25.824,7.706,49.346,22.299,68.022,42.198c4.368,4.654,4.135,11.968-0.518,16.336
		C365.24,238.757,362.398,239.794,359.563,239.794z"/>
	<path style="fill:#F9A493;" d="M387.906,388.754c-1.417,0-2.857-0.262-4.253-0.816c-5.935-2.351-8.839-9.067-6.488-15.001
		c6.033-15.228,9.091-31.319,9.091-47.825c0-7.367-0.609-14.732-1.81-21.892c-1.056-6.295,3.191-12.254,9.486-13.311
		c6.301-1.054,12.254,3.192,13.311,9.486c1.412,8.421,2.129,17.072,2.129,25.716c0,19.434-3.606,38.389-10.716,56.34
		C396.857,385.988,392.507,388.754,387.906,388.754z"/>
</g>
<g>
	<path style="fill:#333333;" d="M317.632,314.632c2.257,2.257,5.215,3.385,8.172,3.385s5.915-1.129,8.172-3.385l42.994-42.996
		c4.513-4.513,4.513-11.831,0-16.344c-4.514-4.513-11.83-4.513-16.346,0l-42.994,42.996
		C313.117,302.801,313.117,310.119,317.632,314.632z"/>
	<path style="fill:#333333;" d="M317.818,148.739v-42.626c0-6.383-5.175-11.557-11.557-11.557h-25.246l7.965-7.965
		c19.776-19.777,19.777-51.957,0-71.734l0,0C279.399,5.276,266.66,0,253.112,0s-26.286,5.276-35.867,14.857
		c-19.777,19.777-19.776,51.957,0,71.734l7.965,7.966h-25.252c-6.382,0-11.557,5.174-11.557,11.557v44.762
		C118.664,178.026,69.11,245.887,69.11,325.11C69.11,428.162,152.948,512,256,512s186.89-83.839,186.89-186.89
		C442.891,243.714,390.582,174.317,317.818,148.739z M233.59,31.201c5.215-5.215,12.148-8.087,19.521-8.087
		s14.308,2.872,19.523,8.087c10.764,10.764,10.764,28.281,0,39.046L253.112,89.77l-19.523-19.524
		C222.825,59.482,222.825,41.966,233.59,31.201z M211.517,117.671h83.186v24.588c-12.491-2.641-25.435-4.04-38.701-4.04
		c-15.326,0-30.221,1.868-44.484,5.364v-25.912H211.517z M256.001,488.885c-90.307,0-163.775-73.469-163.775-163.775
		s73.469-163.775,163.775-163.775s163.775,73.469,163.775,163.775S346.308,488.885,256.001,488.885z"/>
	<path style="fill:#333333;" d="M206.758,302.23c0-21.656-17.619-39.274-39.275-39.274h-7.407v-14.814h35.126
		c6.382,0,11.557-5.174,11.557-11.557s-5.175-11.557-11.557-11.557h-46.684c-6.382,0-11.557,5.174-11.557,11.557v37.929
		c0,6.383,5.175,11.557,11.557,11.557h18.964c8.912,0,16.161,7.249,16.161,16.159c0,8.911-7.249,16.161-16.161,16.161h-18.964
		c-6.382,0-11.557,5.174-11.557,11.557s5.175,11.557,11.557,11.557h18.964C189.139,341.505,206.758,323.886,206.758,302.23z"/>
	<path style="fill:#333333;" d="M253.766,341.507c21.924,0,39.761-17.836,39.761-39.761v-36.961
		c0-21.924-17.838-39.761-39.761-39.761s-39.761,17.836-39.761,39.761v36.961C214.005,323.671,231.842,341.507,253.766,341.507z
		 M237.12,264.784c0-9.179,7.467-16.646,16.646-16.646s16.646,7.467,16.646,16.646v36.961c0,9.179-7.467,16.646-16.646,16.646
		s-16.646-7.467-16.646-16.646V264.784z"/>
	<path style="fill:#333333;" d="M198.783,366.702c-17.141,0-31.086,13.945-31.086,31.086v22.031
		c0,17.142,13.945,31.086,31.086,31.086s31.086-13.945,31.086-31.086v-22.031C229.869,380.646,215.924,366.702,198.783,366.702z
		 M206.754,419.819c0,4.395-3.576,7.971-7.971,7.971s-7.971-3.576-7.971-7.971v-22.031c0-4.395,3.576-7.971,7.971-7.971
		s7.971,3.576,7.971,7.971V419.819z"/>
	<path style="fill:#333333;" d="M285.996,366.702h-30.544c-6.382,0-11.557,5.174-11.557,11.557v61.087
		c0,6.383,5.175,11.557,11.557,11.557c6.382,0,11.557-5.174,11.557-11.557v-15.201h5.802c6.382,0,11.557-5.174,11.557-11.557
		c0-6.383-5.175-11.557-11.557-11.557h-5.802v-11.214h18.986c6.382,0,11.557-5.174,11.557-11.557
		C297.553,371.877,292.378,366.702,285.996,366.702z"/>
	<path style="fill:#333333;" d="M348.93,366.702h-30.545c-6.382,0-11.557,5.174-11.557,11.557v61.087
		c0,6.383,5.175,11.557,11.557,11.557s11.557-5.174,11.557-11.557v-15.201h5.802c6.382,0,11.557-5.174,11.557-11.557
		c0-6.383-5.175-11.557-11.557-11.557h-5.802v-11.214h18.988c6.382,0,11.557-5.174,11.557-11.557
		C360.488,371.877,355.312,366.702,348.93,366.702z"/>
	<circle style="fill:#333333;" cx="368.796" cy="306.454" r="11.557"/>
	<circle style="fill:#333333;" cx="325.953" cy="263.611" r="11.557"/>
</g>
<circle style="fill:#F9A493;" cx="373.558" cy="404.345" r="11.557"/>
<g>
</g>
<g>
</g>
<g>
</g>
<g>
</g>
<g>
</g>
<g>
</g>
<g>
</g>
<g>
</g>
<g>
</g>
<g>
</g>
<g>
</g>
<g>
</g>
<g>
</g>
<g>
</g>
<g>
</g>
</svg>
