<?xml version="1.0" encoding="iso-8859-1"?>
<!-- Generator: Adobe Illustrator 19.0.0, SVG Export Plug-In . SVG Version: 6.00 Build 0)  -->
<svg version="1.1" id="Layer_1" xmlns="http://www.w3.org/2000/svg" xmlns:xlink="http://www.w3.org/1999/xlink" x="0px" y="0px"
	 viewBox="0 0 512 512" style="enable-background:new 0 0 512 512;" xml:space="preserve">
<g transform="translate(1 1)">
	<path style="fill:#FFFFFF;" d="M470.893,502.467H39.107c-17.067,0-31.573-14.507-31.573-31.573v-309.76h494.933v309.76
		C502.467,487.96,487.96,502.467,470.893,502.467L470.893,502.467z"/>
	<g>
		<path style="fill:#0096E6;" d="M470.893,511H39.107C16.92,511-1,493.08-1,470.893V152.6h512v318.293
			C511,493.08,493.08,511,470.893,511z M16.067,169.667v301.227c0,12.8,10.24,23.04,23.04,23.04H470.04
			c12.8,0,23.04-10.24,23.04-23.04V169.667H16.067z"/>
		<path style="fill:#0096E6;" d="M255,391.533c-61.44,0-110.933-49.493-110.933-110.933v-51.2c0-5.12,3.413-8.533,8.533-8.533
			c5.12,0,8.533,3.413,8.533,8.533v51.2c0,52.053,41.813,93.867,93.867,93.867s93.867-41.813,93.867-93.867v-51.2
			c0-5.12,3.413-8.533,8.533-8.533s8.533,3.413,8.533,8.533v51.2C365.933,342.04,316.44,391.533,255,391.533z M383,237.933
			c-5.12,0-8.533-3.413-8.533-8.533c0-9.387-7.68-17.067-17.067-17.067s-17.067,7.68-17.067,17.067c0,5.12-3.413,8.533-8.533,8.533
			s-8.533-3.413-8.533-8.533c0-18.773,15.36-34.133,34.133-34.133s34.133,15.36,34.133,34.133
			C391.533,234.52,388.12,237.933,383,237.933z M178.2,237.933c-5.12,0-8.533-3.413-8.533-8.533c0-9.387-7.68-17.067-17.067-17.067
			s-17.067,7.68-17.067,17.067c0,5.12-3.413,8.533-8.533,8.533s-8.533-3.413-8.533-8.533c0-18.773,15.36-34.133,34.133-34.133
			s34.133,15.36,34.133,34.133C186.733,234.52,183.32,237.933,178.2,237.933z M476.867,169.667L476.867,169.667H33.133l0,0h-25.6
			V33.133H203.8c5.12,0,8.533,3.413,8.533,8.533S208.92,50.2,203.8,50.2H53.613l36.693,36.693c0.853,0.853,0.853,0.853,1.707,1.707
			c0,0,0,0.853,0.853,0.853c0,0.853,0,1.707,0,2.56c0,0,0,0,0,0.853V152.6h324.267V92.867c0,0,0,0,0-0.853
			c0-0.853,0-1.707,0.853-2.56c0,0,0-0.853,0.853-0.853c0-0.853,0.853-1.707,1.707-1.707l35.84-36.693H306.2
			c-5.12,0-8.533-3.413-8.533-8.533s3.413-8.533,8.533-8.533h196.267v136.533H476.867L476.867,169.667z M481.133,152.6h4.267V50.2
			h-5.12l-43.52,43.52L481.133,152.6z M434.2,152.6h25.6l-25.6-34.133V152.6z M50.2,152.6h25.6v-34.133L50.2,152.6z M24.6,152.6
			h4.267L73.24,93.72L29.72,50.2H24.6V152.6z M255,144.067L255,144.067L255,144.067c-0.853,0-2.56,0-3.413-0.853
			c-0.853,0-1.707-0.853-2.56-1.707l-59.733-59.733c-3.413-3.413-3.413-8.533,0-11.947s8.533-3.413,11.947,0l45.227,45.227V7.533
			C246.467,2.413,249.88-1,255-1s8.533,3.413,8.533,8.533v107.52l45.227-45.227c3.413-3.413,8.533-3.413,11.947,0
			c3.413,3.413,3.413,8.533,0,11.947l-59.733,59.733c-0.853,0.853-1.707,1.707-2.56,1.707
			C257.56,144.067,255.853,144.067,255,144.067L255,144.067L255,144.067z"/>
	</g>
</g>
<g>
</g>
<g>
</g>
<g>
</g>
<g>
</g>
<g>
</g>
<g>
</g>
<g>
</g>
<g>
</g>
<g>
</g>
<g>
</g>
<g>
</g>
<g>
</g>
<g>
</g>
<g>
</g>
<g>
</g>
</svg>
