<?xml version="1.0" encoding="iso-8859-1"?>
<!-- Generator: Adobe Illustrator 19.0.0, SVG Export Plug-In . SVG Version: 6.00 Build 0)  -->
<svg version="1.1" id="Layer_1" xmlns="http://www.w3.org/2000/svg" xmlns:xlink="http://www.w3.org/1999/xlink" x="0px" y="0px"
	 viewBox="0 0 512.001 512.001" style="enable-background:new 0 0 512.001 512.001;" xml:space="preserve">
<path style="fill:#E54728;" d="M232.421,132.827v33.665c0,9.901-0.395,14.259-5.148,24.16l-91.884,190.502
	c-6.337,12.673-10.694,15.446-32.477,15.446H47.068c-12.673,0-13.466-6.732-8.713-17.426l87.131-184.561H28.849
	c-13.07,0-17.426-4.357-17.426-17.426v-44.358c0-13.07,4.357-17.426,17.426-17.426h186.145
	C228.064,115.401,232.421,119.758,232.421,132.827z"/>
<path style="fill:#F95428;" d="M69.782,371.47l95.358-201.988H36.552v-28.952h170.739v25.961c0,7.281,0,7.716-2.673,13.284
	l-91.78,190.286c-0.204,0.406-0.388,0.763-0.553,1.076c-1.726,0.17-4.614,0.33-9.373,0.33h-33.13V371.47z"/>
<path style="fill:#E54728;" d="M383.742,109.46c74.063,0,116.837,41.586,116.837,106.935v78.815
	c0,66.141-42.774,107.331-116.837,107.331c-74.458,0-117.232-41.19-117.232-107.331v-78.815
	C266.51,151.045,309.284,109.46,383.742,109.46z"/>
<path style="fill:#F95428;" d="M383.742,377.411c-59.393,0-92.103-29.193-92.103-82.201v-78.815
	c0-52.753,32.71-81.805,92.103-81.805c29.559,0,53.445,7.686,69.073,22.228c15.017,13.976,22.633,34.02,22.633,59.577v78.815
	C475.448,348.219,442.88,377.411,383.742,377.411z"/>
<g>
	<path style="fill:#333333;" d="M343.812,253.638c-20.606,0-37.371-16.764-37.371-37.37s16.765-37.371,37.371-37.371
		c20.606,0,37.371,16.765,37.371,37.371S364.418,253.638,343.812,253.638z M343.812,201.742c-8.009,0-14.526,6.517-14.526,14.526
		s6.517,14.525,14.526,14.525c8.01,0,14.526-6.517,14.526-14.525C358.338,208.259,351.821,201.742,343.812,201.742z"/>
	<path style="fill:#333333;" d="M423.277,333.103c-20.606,0-37.371-16.764-37.371-37.37c0-20.606,16.765-37.371,37.371-37.371
		s37.37,16.765,37.37,37.371C460.648,316.339,443.884,333.103,423.277,333.103z M423.277,281.207
		c-8.009,0-14.526,6.517-14.526,14.526c0,8.009,6.517,14.525,14.526,14.525c8.01,0,14.525-6.517,14.525-14.525
		C437.801,287.723,431.286,281.207,423.277,281.207z"/>
	<path style="fill:#333333;" d="M350.519,300.448c-2.924,0-5.846-1.115-8.077-3.346c-4.461-4.461-4.461-11.693,0-16.154l66.05-66.05
		c4.463-4.461,11.693-4.459,16.155,0c4.461,4.462,4.461,11.693,0,16.155l-66.05,66.05
		C356.365,299.332,353.442,300.448,350.519,300.448z"/>
	<path style="fill:#333333;" d="M102.912,408.023H47.068c-9.409,0-16.113-2.973-19.922-8.836
		c-5.421-8.343-2.157-18.065,0.772-24.652c0.034-0.08,0.072-0.159,0.109-0.238l79.437-168.263H28.85
		C9.437,206.035,0,196.599,0,177.186v-44.357c0-19.414,9.437-28.85,28.85-28.85h186.145c19.412,0,28.849,9.436,28.849,28.849v33.665
		c0,11.15-0.594,17.271-6.272,29.104l-91.894,190.521c-0.024,0.049-0.048,0.098-0.072,0.147
		C136.367,404.735,126.387,408.023,102.912,408.023z M48.215,385.177h54.697c6.217,0,13.765-0.203,16.967-1.786
		c1.13-0.559,2.384-1.538,5.259-7.275l91.847-190.426c3.854-8.029,4.014-10.608,4.014-19.198v-33.665
		c0-3.278-0.347-4.833-0.547-5.457c-0.625-0.2-2.178-0.547-5.457-0.547H28.85c-3.279,0-4.833,0.347-5.458,0.547
		c-0.2,0.624-0.547,2.178-0.547,5.457v44.357c0,3.278,0.347,4.833,0.547,5.457c0.625,0.2,2.178,0.547,5.458,0.547h96.637
		c3.913,0,7.554,2.002,9.648,5.308c2.095,3.306,2.352,7.452,0.682,10.991L48.744,383.924
		C48.544,384.377,48.369,384.794,48.215,385.177z"/>
	<path style="fill:#333333;" d="M383.742,413.963c-39.205,0-71.816-11.035-94.308-31.914c-22.469-20.857-34.345-50.885-34.345-86.84
		v-78.815c0-73.006,49.298-118.357,128.655-118.357c79.113,0,128.258,45.352,128.258,118.357v78.815
		c0,35.933-11.855,65.959-34.286,86.831C455.271,402.925,422.776,413.963,383.742,413.963z M383.742,120.883
		c-33.268,0-60.505,8.96-78.767,25.911c-17.691,16.421-27.043,40.49-27.043,69.601v78.815c0,60.951,38.566,95.909,105.81,95.909
		c33.156,0,60.27-8.922,78.41-25.802c17.666-16.438,27.004-40.68,27.004-70.106v-78.815c0-29.102-9.338-53.173-27.004-69.611
		C443.942,129.838,416.828,120.883,383.742,120.883z"/>
</g>
<g>
	<path style="fill:#F9A493;" d="M467.452,227.818c-6.308,0-11.423-5.114-11.423-11.423c0-19.946-5.533-35.208-16.444-45.36
		c-4.618-4.298-4.879-11.525-0.58-16.144c4.298-4.618,11.525-4.877,16.144-0.58c15.743,14.651,23.726,35.539,23.726,62.085
		C478.875,222.704,473.761,227.818,467.452,227.818z"/>
	<circle style="fill:#F9A493;" cx="197.748" cy="151.224" r="11.423"/>
</g>
<g>
</g>
<g>
</g>
<g>
</g>
<g>
</g>
<g>
</g>
<g>
</g>
<g>
</g>
<g>
</g>
<g>
</g>
<g>
</g>
<g>
</g>
<g>
</g>
<g>
</g>
<g>
</g>
<g>
</g>
</svg>
