<?xml version="1.0" encoding="iso-8859-1"?>
<!-- Generator: Adobe Illustrator 19.0.0, SVG Export Plug-In . SVG Version: 6.00 Build 0)  -->
<svg version="1.1" id="Layer_1" xmlns="http://www.w3.org/2000/svg" xmlns:xlink="http://www.w3.org/1999/xlink" x="0px" y="0px"
	 viewBox="0 0 512 512" style="enable-background:new 0 0 512 512;" xml:space="preserve">
<path style="fill:#FFE7E5;" d="M404.019,301.201c-9.651-0.521-20.71-1.485-33.51-2.603c-29.986-2.62-67.302-5.879-114.509-5.879
	c-47.198,0-84.514,3.268-114.5,5.879c-12.8,1.118-23.859,2.082-33.519,2.603l-13.116,0.7l1.041,13.09
	C104.201,420.011,173.03,499.2,256,499.2s151.799-79.189,160.102-184.209l1.041-13.09L404.019,301.201z"/>
<path style="fill:#6FB0B6;" d="M256,12.8c-108.86,0-166.4,54.537-166.4,157.705c0,17.647,1.57,30.763,4.941,41.267l4.446,13.833
	l13.158-6.161C148.369,202.513,203.486,192,256,192s107.631,10.513,143.846,27.452l13.158,6.161l4.446-13.833
	c3.371-10.496,4.941-23.62,4.941-41.267C422.4,67.337,364.86,12.8,256,12.8z"/>
<path style="fill:#8CC0C5;" d="M256,192c-77.431,0-192,26.044-192,81.946c0,8.986,1.152,15.565,3.413,19.558l7.962,6.042
	c1.775,0.512,7.159,2.048,19.823,2.048c11.998,0,26.88-1.289,46.268-2.987c29.969-2.628,67.26-5.888,114.526-5.888
	c47.283,0,84.574,3.268,115.072,5.939c18.842,1.638,33.732,2.935,45.722,2.935c15.147,0,20.634-2.15,23.441-3.763l7.441-16.265
	c0.188-2.099,0.324-4.625,0.324-7.62C448,218.044,333.431,192,256,192z"/>
<rect x="192" y="89.6" style="fill:#FEDEA1;" width="128" height="51.2"/>
<g>
	<path style="fill:#573A32;" d="M51.2,273.937c0,27.605,9.617,37.53,31.829,39.834C90.914,424.806,165.12,512,256,512
		s165.086-87.194,172.971-198.229c22.204-2.304,31.829-12.228,31.829-39.834c0-21.666-12.868-39.253-33.041-53.214
		c4.838-12.407,7.441-28.595,7.441-50.21C435.2,60.646,371.465,0,256,0S76.8,60.646,76.8,170.513c0,21.615,2.594,37.803,7.441,50.21
		C64.06,234.684,51.2,252.279,51.2,273.937z M256,486.4c-76.732,0-139.699-75.767-147.345-172.416
		c32.538-1.732,80.384-8.465,147.345-8.465c66.97,0,114.807,6.724,147.345,8.465C395.699,410.633,332.732,486.4,256,486.4z
		 M256,25.6c101.922,0,153.6,48.751,153.6,144.913c0,16.657-1.468,28.45-4.326,37.35C363.46,188.314,305.152,179.2,256,179.2
		s-107.46,9.114-149.274,28.663c-2.859-8.9-4.326-20.693-4.326-37.35C102.4,74.351,154.078,25.6,256,25.6z M256,204.8
		c84.762,0,179.2,28.39,179.2,69.137c0,9.515-1.468,12.698-1.34,12.8c-0.606,0.35-4.215,2.057-17.058,2.057
		c-11.554,0-26.377-1.297-45.15-2.935c-30.242-2.645-67.883-5.931-115.652-5.931c-47.761,0-85.402,3.294-115.644,5.931
		c-18.773,1.638-33.604,2.935-45.158,2.935c-12.595,0-16.307-1.638-16.631-1.638c-0.026,0-0.026,0.009-0.017,0.026
		c-0.017-0.026-1.749-2.884-1.749-13.244C76.8,233.19,171.238,204.8,256,204.8z"/>
	<path style="fill:#573A32;" d="M204.8,153.6h102.4c14.14,0,25.6-11.46,25.6-25.6v-25.6c0-14.14-11.46-25.6-25.6-25.6H204.8
		c-14.14,0-25.6,11.46-25.6,25.6V128C179.2,142.14,190.66,153.6,204.8,153.6z M204.8,102.4h102.4V128H204.8V102.4z"/>
</g>
<g>
</g>
<g>
</g>
<g>
</g>
<g>
</g>
<g>
</g>
<g>
</g>
<g>
</g>
<g>
</g>
<g>
</g>
<g>
</g>
<g>
</g>
<g>
</g>
<g>
</g>
<g>
</g>
<g>
</g>
</svg>
